<svg xmlns="http://www.w3.org/2000/svg" width="115mm" height="100mm" viewBox="0 0 115 100">
<rect x="0" y="0" width="100%" height="100%" fill="#ffffff"/>
<polygon points="55.00,23.00 106.96,53.00 102.63,55.50 50.67,25.50" fill="#ffffff" stroke="#1a1a1a" stroke-width="0.5" stroke-linejoin="round"/>
<polygon points="50.67,25.50 102.63,55.50 98.30,63.00 46.34,33.00" fill="#ffffff" stroke="#1a1a1a" stroke-width="0.5" stroke-linejoin="round"/>
<polygon points="46.34,33.00 98.30,63.00 98.30,83.00 46.34,53.00" fill="#ffffff" stroke="#1a1a1a" stroke-width="0.5" stroke-linejoin="round"/>
<polygon points="106.96,88.00 106.96,53.00 102.63,55.50 98.30,63.00 98.30,83.00 72.32,98.00 72.32,108.00" fill="#ffffff" stroke="#1a1a1a" stroke-width="0.5" stroke-linejoin="round"/>
<polygon points="46.34,53.00 98.30,83.00 72.32,98.00 20.36,68.00" fill="#ffffff" stroke="#1a1a1a" stroke-width="0.5" stroke-linejoin="round"/>
<polygon points="20.36,68.00 72.32,98.00 72.32,108.00 20.36,78.00" fill="#ffffff" stroke="#1a1a1a" stroke-width="0.5" stroke-linejoin="round"/>
<polygon points="73.16,76.00 73.14,76.42 73.09,76.83 73.00,77.25 72.88,77.66 72.72,78.06 72.53,78.46 72.30,78.86 72.04,79.25 71.75,79.63 71.43,80.00 71.07,80.36 70.68,80.71 70.27,81.05 69.82,81.38 69.35,81.70 68.86,82.00 68.33,82.29 67.79,82.56 67.22,82.82 66.63,83.06 66.02,83.28 65.39,83.48 64.75,83.67 64.09,83.84 63.42,83.99 62.73,84.12 62.04,84.23 61.33,84.32 60.62,84.39 59.90,84.44 59.19,84.48 58.46,84.49 57.74,84.48 57.02,84.44 56.31,84.39 55.60,84.32 54.89,84.23 54.20,84.12 53.51,83.99 52.84,83.84 52.18,83.67 51.54,83.48 50.91,83.28 50.30,83.06 49.71,82.82 49.14,82.56 48.59,82.29 48.07,82.00 47.57,81.70 47.10,81.38 46.66,81.05 46.24,80.71 45.86,80.36 45.50,80.00 45.18,79.63 44.89,79.25 44.63,78.86 44.40,78.46 44.21,78.06 44.05,77.66 43.93,77.25 43.84,76.83 43.78,76.42 43.77,76.00 43.77,68.00 43.78,68.42 43.84,68.83 43.93,69.25 44.05,69.66 44.21,70.06 44.40,70.46 44.63,70.86 44.89,71.25 45.18,71.63 45.50,72.00 45.86,72.36 46.24,72.71 46.66,73.05 47.10,73.38 47.57,73.70 48.07,74.00 48.59,74.29 49.14,74.56 49.71,74.82 50.30,75.06 50.91,75.28 51.54,75.48 52.18,75.67 52.84,75.84 53.51,75.99 54.20,76.12 54.89,76.23 55.60,76.32 56.31,76.39 57.02,76.44 57.74,76.48 58.46,76.49 59.19,76.48 59.90,76.44 60.62,76.39 61.33,76.32 62.04,76.23 62.73,76.12 63.42,75.99 64.09,75.84 64.75,75.67 65.39,75.48 66.02,75.28 66.63,75.06 67.22,74.82 67.79,74.56 68.33,74.29 68.86,74.00 69.35,73.70 69.82,73.38 70.27,73.05 70.68,72.71 71.07,72.36 71.43,72.00 71.75,71.63 72.04,71.25 72.30,70.86 72.53,70.46 72.72,70.06 72.88,69.66 73.00,69.25 73.09,68.83 73.14,68.42 73.16,68.00" fill="#ffffff" stroke="#1a1a1a" stroke-width="0.5" stroke-linejoin="round"/>
<polygon points="68.86,74.00 67.79,74.56 66.63,75.06 65.39,75.48 64.09,75.84 62.73,76.12 61.33,76.32 59.90,76.44 58.46,76.49 57.02,76.44 55.60,76.32 54.20,76.12 52.84,75.84 51.54,75.48 50.30,75.06 49.14,74.56 48.07,74.00 47.10,73.38 46.24,72.71 45.50,72.00 44.89,71.25 44.40,70.46 44.05,69.66 43.84,68.83 43.77,68.00 43.84,67.17 44.05,66.34 44.40,65.54 44.89,64.75 45.50,64.00 46.24,63.29 47.10,62.62 48.07,62.00 49.14,61.44 50.30,60.94 51.54,60.52 52.84,60.16 54.20,59.88 55.60,59.68 57.02,59.56 58.46,59.51 59.90,59.56 61.33,59.68 62.73,59.88 64.09,60.16 65.39,60.52 66.63,60.94 67.79,61.44 68.86,62.00 69.82,62.62 70.68,63.29 71.43,64.00 72.04,64.75 72.53,65.54 72.88,66.34 73.09,67.17 73.16,68.00 73.09,68.83 72.88,69.66 72.53,70.46 72.04,71.25 71.43,72.00 70.68,72.71 69.82,73.38 68.86,74.00" fill="#ffffff" stroke="#1a1a1a" stroke-width="0.5" stroke-linejoin="round"/>
<polygon points="63.66,71.00 63.13,71.28 62.55,71.53 61.93,71.74 61.28,71.92 60.60,72.06 59.90,72.16 59.18,72.22 58.46,72.24 57.74,72.22 57.03,72.16 56.33,72.06 55.65,71.92 55.00,71.74 54.38,71.53 53.80,71.28 53.27,71.00 52.78,70.69 52.35,70.36 51.98,70.00 51.68,69.62 51.43,69.23 51.26,68.83 51.15,68.42 51.12,68.00 51.15,67.58 51.26,67.17 51.43,66.77 51.68,66.38 51.98,66.00 52.35,65.64 52.78,65.31 53.27,65.00 53.80,64.72 54.38,64.47 55.00,64.26 55.65,64.08 56.33,63.94 57.03,63.84 57.74,63.78 58.46,63.76 59.18,63.78 59.90,63.84 60.60,63.94 61.28,64.08 61.93,64.26 62.55,64.47 63.13,64.72 63.66,65.00 64.14,65.31 64.57,65.64 64.94,66.00 65.25,66.38 65.50,66.77 65.67,67.17 65.78,67.58 65.81,68.00 65.78,68.42 65.67,68.83 65.50,69.23 65.25,69.62 64.94,70.00 64.57,70.36 64.14,70.69 63.66,71.00" fill="#ffffff" stroke="#1a1a1a" stroke-width="0.5" stroke-linejoin="round"/>
</svg>
